PathFileType	4	(X/Y/Z)	OpenSim_Sub06_EMGBaseline_Gyro.trc
DataRate	CameraRate	NumFrames	NumMarkers	Units	OrigDataRate	OrigDataStartFrame	OrigNumFrames
100	100	27	8	m	100	7237	8270
Frame#	Time	torso_imu_offset_imu	pelvis_imu_offset_imu	tibia_r_imu_offset_imu	femur_r_imu_offset_imu	tibia_l_imu_offset_imu	femur_l_imu_offset_imu	toes_r_imu_offset_imu	toes_l_imu_offset_imu
				X1	Y1	Z1	X2	Y2	Z2	X3	Y3	Z3	X4	Y4	Z4	X5	Y5	Z5	X6	Y6	Z6	X7	Y7	Z7	X8		Y8	Z8	

7237	72.36000000	-0.45939067	-0.15009131	-0.25793955	-0.14323710	0.10471944	-0.00306580	1.21325916	0.37193038	5.67242648	0.59742782	-0.42794730	-0.75653677	0.22923364	0.04705853	0.58588352	-0.11595556	-0.03872977	1.19044057	-1.26158390	3.02106270	2.33128199	0.01983291	-0.02995625	0.10590522
7238	72.37000000	-0.42167065	-0.14442790	-0.24990212	-0.08984324	0.02299404	0.01748730	1.03542139	0.49651898	5.31805345	0.62576332	-0.39287718	-0.92619376	0.29062731	0.12234830	0.63439044	-0.22289823	-0.02509713	1.14945609	-1.14964952	2.36555926	2.73097307	0.07061778	-0.05798592	0.10655588
7239	72.38000000	-0.38972841	-0.13247420	-0.24450574	-0.05259973	-0.05928604	0.02066550	1.03163426	0.38261152	4.80260915	0.57196272	-0.25883175	-1.04868521	0.24083638	0.13111327	0.68931024	-0.33705471	-0.02303847	1.06159967	-0.91627513	1.63911030	3.05557075	0.04115104	-0.04901174	0.12002872
7240	72.39000000	-0.32928652	-0.11066354	-0.22709702	-0.04650424	-0.15510901	0.02564019	1.54961731	0.05082042	4.14882081	0.55756673	-0.05188183	-1.11004426	0.10785602	0.11435009	0.75930303	-0.40215880	-0.03912518	0.95874988	-0.77110258	0.97273251	3.39619101	0.05356809	-0.09866982	0.13385100
7241	72.40000000	-0.24671497	-0.07256964	-0.20399810	-0.08675998	-0.24889957	0.03526995	1.92733882	-0.30054586	3.50694680	0.55650335	0.15633499	-1.14104537	-0.01501539	0.10015406	0.82843091	-0.37451016	-0.02119672	0.84977191	-1.25120077	0.70534800	3.50284150	-0.03116950	-0.17752247	0.16076241
7242	72.41000000	-0.16698769	-0.03013905	-0.17206143	-0.08033226	-0.33632906	0.05316406	1.39014572	-0.55714191	3.01292824	0.52077275	0.30066054	-1.09771486	-0.13094587	0.13076715	0.89959346	-0.25123747	0.02220496	0.77917842	-0.82060976	0.76254476	3.18825434	-0.12094275	-0.24182973	0.15687653
7243	72.42000000	-0.10015476	-0.00382886	-0.13866262	-0.02763067	-0.40282525	0.05874579	-0.09543307	-0.26358603	2.79114350	0.29350727	0.21929576	-0.95316475	-0.26342014	0.17179727	0.99267576	-0.13837720	0.04833859	0.75578424	-0.16380970	0.85985720	2.70359438	-0.04739267	-0.30986392	0.14934580
7244	72.43000000	-0.03501998	0.02373132	-0.11049881	0.07001100	-0.43155952	0.04660780	-0.92173278	0.27159778	2.54460875	0.00848692	-0.12541066	-0.66370452	-0.23778530	0.17604757	1.11341246	-0.13055306	0.03549492	0.75689598	0.29844291	0.98338406	2.24225654	-0.08947819	-0.37346689	0.16898106
7245	72.44000000	0.02797421	0.05723816	-0.08393190	0.14657301	-0.44911764	0.04680758	-0.56456267	0.27239060	2.04613925	-0.04326083	-0.46809305	-0.27729636	-0.14942555	0.22197014	1.22719735	-0.21024452	-0.03346069	0.76595854	0.43911410	0.96887324	1.79308267	-0.20095787	-0.48123380	0.18927637
7246	72.45000000	0.07023293	0.09837476	-0.05474499	0.20826684	-0.43292067	0.03348094	0.32865041	-0.15254125	1.37348233	-0.02211851	-0.70571207	0.01799791	-0.05114880	0.25817706	1.31843763	-0.30138199	-0.10695409	0.77067185	-0.21674184	0.76704944	1.37944407	-0.16455094	-0.58030682	0.22124905
7247	72.46000000	0.09648197	0.12703000	-0.02766121	0.20431852	-0.38273369	0.00931360	0.94699472	-0.53442565	0.59319561	-0.16599664	-0.82038420	0.18522619	0.07110468	0.31475003	1.40120246	-0.38207783	-0.15428887	0.72914809	-0.84504135	0.34278488	0.70387959	-0.21505113	-0.66541813	0.24500472
7248	72.47000000	0.10653660	0.14594821	-0.00638575	0.18984252	-0.31857579	-0.00657246	0.41133968	-0.81203386	-0.24855909	-0.47514264	-0.82728342	0.26598202	0.19596005	0.37026686	1.50476061	-0.41633659	-0.14943359	0.62435863	1.45096747	-0.71510099	-0.86672678	-0.27920268	-0.77616984	0.26796852
7249	72.48000000	0.10747207	0.17088773	-0.00104295	0.15670983	-0.26727875	-0.04893010	-0.65569068	-0.74913527	-0.96331659	-0.79525246	-0.76510090	0.33184004	0.29996422	0.41113801	1.63000607	-0.35131918	-0.08150247	0.45230477	2.28659182	-1.57936517	-1.97185782	-0.24938984	-0.86009584	0.29535802
7250	72.49000000	0.15837116	0.21635472	0.01064201	0.15265064	-0.23347952	-0.10100081	-1.18323685	-0.55234914	-1.44191402	-0.95682898	-0.56293466	0.47088294	0.37709321	0.43299322	1.77221917	-0.19034011	0.02013651	0.25793925	2.83268935	-2.09119211	-2.12199815	-0.36532222	-1.01268666	0.36557930
7251	72.50000000	0.19397441	0.27929450	0.01721320	0.18701692	-0.22084425	-0.13800762	-1.28479206	-0.48039760	-1.88638028	-1.01460226	-0.29919438	0.61450607	0.42017840	0.44428195	1.90374898	-0.02868082	0.13489636	0.07472119	0.44159096	-1.12910722	-0.16893001	-0.42041582	-1.12670418	0.43528529
7252	72.51000000	0.23248059	0.30654176	-0.00214957	0.24323935	-0.31879637	-0.11835933	-1.55294257	-0.75336106	-2.19416429	-1.08963137	-0.31535896	0.71451152	0.34635095	0.47804168	2.03402387	0.12645884	0.26864079	-0.12278792	3.14052326	2.28978667	-0.24305952	-0.43229369	-1.33924693	0.48108784
7253	72.52000000	0.29040507	0.24586251	-0.03050684	0.29751580	-0.52605403	0.01280677	-2.85501775	-1.35078229	-2.08587486	-1.04895227	-0.67802780	0.73578022	0.19972690	0.46903973	2.17658239	0.26698075	0.40191656	-0.33947367	-0.83304539	0.03083644	-1.45417393	-0.32207741	-1.61219865	0.54331016
7254	72.53000000	0.34430253	0.19265427	-0.05115939	0.33963286	-0.58813047	0.35306156	-3.53969550	-1.17169737	-1.72543733	-0.63202344	-0.91049643	0.43954590	0.06943159	0.37609277	2.35206271	0.31623690	0.49367163	-0.55661039	0.25440151	0.86861070	-0.33008076	-0.44251755	-1.97104296	0.74401320
7255	72.54000000	0.28918462	0.15928601	-0.02239509	0.24513967	-0.40191475	0.64985560	-1.54510690	-0.12204257	-1.48189693	0.03813811	-0.34957442	0.02233875	-0.13927732	0.20163481	2.51650860	0.27606219	0.53479485	-0.76297226	0.30772077	-0.00669645	-0.18343656	-0.62316653	-2.41357089	1.02123194
7256	72.55000000	0.15302940	0.11009787	0.04540369	-0.15079593	-0.16806738	0.72959855	1.35235621	0.75098355	-1.66915959	0.34711085	0.32307938	0.00566750	-0.38264373	-0.05835289	2.61958396	0.18658868	0.54819977	-0.99085815	-0.11344521	0.02144816	0.01257488	-0.54822692	-3.01898994	1.26793629
7257	72.56000000	0.02263643	0.06528087	0.08029540	-0.62025955	-0.01717765	0.49938910	2.78761079	0.86385901	-1.84572851	0.14461410	0.30667866	0.03886178	-0.48149206	-0.43083289	2.68939035	0.01589716	0.60152256	-1.30753585	-0.09588273	-0.24065555	0.17752247	-0.63642552	-3.65797376	1.45884791
7258	72.57000000	-0.00610244	0.06237651	0.03210311	-0.81925394	0.08801973	0.19890006	3.18306451	0.88030291	-1.79736299	0.04918741	0.02931666	0.06018293	-0.34266848	-0.71238770	2.73943424	-0.10024392	0.80412828	-1.68267150	-0.34240636	-0.22228514	0.29117436	-0.74538006	-4.31858318	1.58217686
7259	72.58000000	0.04768899	0.09419406	-0.03006820	-0.69296243	0.13460138	-0.00864210	3.00912665	0.49570931	-1.63563011	0.22511139	-0.11399732	0.05962737	-0.00083567	-0.75538268	2.81123489	-0.11626457	1.14743648	-2.01847762	-0.32207221	-0.20140992	0.34723260	-0.82248126	-4.92978036	1.59759643
7260	72.59000000	0.14506090	0.09523697	-0.07138284	-0.32954550	0.12723950	-0.08845193	2.56262892	-0.19913914	-1.46823076	0.19119186	-0.07966998	-0.20764851	0.46313297	-0.56847292	2.87046202	-0.10475800	1.36707028	-2.28384029	-0.28508393	-0.15688296	0.24084164	-0.66997873	-5.48152030	1.48052865
7261	72.60000000	0.24627302	0.08737587	-0.07166687	0.08604736	0.11701804	-0.07200795	2.05712213	-0.74454591	-1.34816397	-0.06002736	-0.05411780	-0.56741750	1.04498784	-0.18024635	2.96523301	-0.31917726	1.40976800	-2.44696096	-0.26592726	-0.10492923	0.11058143	-0.83405393	-5.98789619	1.49474786
7262	72.61000000	0.36295089	0.06966090	-0.01910741	0.40600459	0.08772583	0.02152183	1.49793866	-0.84774485	-0.99463948	-0.44419648	-0.13521243	-0.78635470	1.44798885	0.17644150	3.06246979	-0.63155441	1.40170490	-2.48316923	-0.00244654	0.01062265	-0.04480621	-0.73029571	-6.21891998	1.56642311
7263	72.62000000	0.44040158	0.04314290	0.05939719	0.62093790	0.06084735	0.14245077	1.33226176	-0.59016134	-0.41944204	-0.87537581	-0.34031381	-0.81187084	1.51488792	0.24954306	3.14114337	-0.83573031	1.38983915	-2.40905633	-0.08773361	0.14760783	-0.18435299	-0.05527380	-6.52010984	1.63362861
